<svg width="16" height="16" viewBox="0 0 16 16" fill="none" xmlns="http://www.w3.org/2000/svg">
<path d="M13.5 7V4" stroke="black" stroke-linecap="round" stroke-linejoin="round"/>
<path d="M15 5.5H12" stroke="black" stroke-linecap="round" stroke-linejoin="round"/>
<path d="M10.5 1.5V3.5" stroke="black" stroke-linecap="round" stroke-linejoin="round"/>
<path d="M11.5 2.5H9.5" stroke="black" stroke-linecap="round" stroke-linejoin="round"/>
<path d="M13.5437 9.53749C12.562 9.81277 11.5247 9.82179 10.5384 9.56363C9.55213 9.30546 8.65231 8.78943 7.93139 8.06851C7.21048 7.34759 6.69444 6.44777 6.43628 5.46146C6.17812 4.47516 6.18714 3.43791 6.46241 2.45624C5.49458 2.72562 4.61421 3.24388 3.909 3.95938C3.20379 4.67489 2.69836 5.56268 2.44303 6.53432C2.18771 7.50595 2.19141 8.52753 2.45377 9.49729C2.71613 10.4671 3.22799 11.3512 3.93837 12.0615C4.64875 12.7719 5.53285 13.2838 6.50261 13.5461C7.47237 13.8085 8.49395 13.8122 9.46559 13.5569C10.4372 13.3015 11.325 12.7961 12.0405 12.0909C12.756 11.3857 13.2743 10.5053 13.5437 9.53749Z" stroke="black" stroke-linecap="round" stroke-linejoin="round"/>
</svg>
